<?xml version="1.0" encoding="UTF-8"?>
<svg width="400pt" height="400pt" version="1.1" viewBox="0 0 700 700" xmlns="http://www.w3.org/2000/svg" xmlns:xlink="http://www.w3.org/1999/xlink">
 <g>
  <path d="m300.22 280c0 34.363-27.859 62.223-62.223 62.223s-62.223-27.859-62.223-62.223 27.859-62.223 62.223-62.223 62.223 27.859 62.223 62.223"/>
  <path d="m435.87 90.844c49.156 51.023 75.91 118.22 75.91 189.16s-26.754 138.13-75.91 189.16l-17.422-17.422c44.18-46.668 68.445-107.02 68.445-171.73 0-64.09-24.266-125.07-68.445-171.73l17.422-17.422m0-8.7109-26.754 26.754c44.176 43.559 71.555 103.91 71.555 171.11s-27.379 127.55-70.934 171.73l26.754 26.754c50.402-51.023 81.512-121.33 81.512-198.49s-31.109-147.46-82.133-197.87z"/>
  <path d="m391.69 135.02c37.336 39.199 57.867 90.844 57.867 144.98s-20.535 105.78-57.867 144.98l-17.422-17.422c32.355-34.844 50.402-79.645 50.402-127.55s-18.043-92.711-50.398-127.55l17.418-17.422m0-8.7109-26.754 26.754c32.977 32.355 53.512 77.156 53.512 126.93s-20.535 94.578-52.891 127.55l26.754 26.754c39.203-39.82 63.469-93.953 63.469-154.31s-24.266-114.49-64.09-153.69z"/>
  <path d="m348.13 169.87-26.133 26.133c21.156 21.777 34.223 51.645 34.223 84s-13.066 62.223-34.844 83.379l26.133 26.133c28.621-27.379 46.043-66.578 46.043-109.51s-17.422-82.133-45.422-110.13z"/>
  <use x="70" y="653.332031" xlink:href="#u"/>
  <use x="92.832031" y="653.332031" xlink:href="#b"/>
  <use x="108.175781" y="653.332031" xlink:href="#a"/>
  <use x="129.273437" y="653.332031" xlink:href="#e"/>
  <use x="150.269531" y="653.332031" xlink:href="#d"/>
  <use x="165.140625" y="653.332031" xlink:href="#a"/>
  <use x="186.242188" y="653.332031" xlink:href="#k"/>
  <use x="219.34375" y="653.332031" xlink:href="#j"/>
  <use x="241.613281" y="653.332031" xlink:href="#i"/>
  <use x="272.722656" y="653.332031" xlink:href="#h"/>
  <use x="296.832031" y="653.332031" xlink:href="#c"/>
  <use x="318.207031" y="653.332031" xlink:href="#b"/>
  <use x="333.546875" y="653.332031" xlink:href="#g"/>
  <use x="355.695312" y="653.332031" xlink:href="#e"/>
  <use x="376.691406" y="653.332031" xlink:href="#f"/>
  <use x="409.671875" y="653.332031" xlink:href="#t"/>
  <use x="430.921875" y="653.332031" xlink:href="#s"/>
  <use x="449.441406" y="653.332031" xlink:href="#a"/>
  <use x="470.539062" y="653.332031" xlink:href="#b"/>
  <use x="70" y="684.445312" xlink:href="#r"/>
  <use x="83.535156" y="684.445312" xlink:href="#b"/>
  <use x="98.878906" y="684.445312" xlink:href="#c"/>
  <use x="120.25" y="684.445312" xlink:href="#q"/>
  <use x="163.5" y="684.445312" xlink:href="#d"/>
  <use x="178.371094" y="684.445312" xlink:href="#g"/>
  <use x="200.519531" y="684.445312" xlink:href="#a"/>
  <use x="232.453125" y="684.445312" xlink:href="#p"/>
  <use x="258.488281" y="684.445312" xlink:href="#c"/>
  <use x="279.863281" y="684.445312" xlink:href="#o"/>
  <use x="302.011719" y="684.445312" xlink:href="#f"/>
  <use x="334.992188" y="684.445312" xlink:href="#n"/>
  <use x="357.792969" y="684.445312" xlink:href="#b"/>
  <use x="373.136719" y="684.445312" xlink:href="#c"/>
  <use x="394.507812" y="684.445312" xlink:href="#m"/>
  <use x="405.171875" y="684.445312" xlink:href="#a"/>
  <use x="426.273437" y="684.445312" xlink:href="#l"/>
  <use x="444.714844" y="684.445312" xlink:href="#d"/>
 </g>
</svg>
